<mxfile host="app.diagrams.net" modified="2020-11-24T09:50:34.992Z" agent="5.0 (Windows NT 10.0; Win64; x64) AppleWebKit/537.36 (KHTML, like Gecko) Chrome/87.0.4280.66 Safari/537.36" etag="Ii9q7dJGfjyly8LRzRoU" version="13.9.5" type="github">
  <diagram id="C5RBs43oDa-KdzZeNtuy" name="Page-1">
    <mxGraphModel dx="1422" dy="882" grid="1" gridSize="10" guides="1" tooltips="1" connect="1" arrows="1" fold="1" page="1" pageScale="1" pageWidth="827" pageHeight="1169" math="0" shadow="0">
      <root>
        <mxCell id="WIyWlLk6GJQsqaUBKTNV-0" />
        <mxCell id="WIyWlLk6GJQsqaUBKTNV-1" parent="WIyWlLk6GJQsqaUBKTNV-0" />
        <mxCell id="R8ctTaG4anzIAtwADdkF-2" value="&lt;h1&gt;dmp-server-sdk&lt;/h1&gt;" style="rounded=0;whiteSpace=wrap;html=1;fillColor=#ffe6cc;strokeColor=#d79b00;" vertex="1" parent="WIyWlLk6GJQsqaUBKTNV-1">
          <mxGeometry x="65" y="30" width="665" height="330" as="geometry" />
        </mxCell>
        <mxCell id="R8ctTaG4anzIAtwADdkF-3" value="&lt;h1&gt;dmp-client-sdk&lt;/h1&gt;" style="rounded=0;whiteSpace=wrap;html=1;fillColor=#ffe6cc;strokeColor=#d79b00;" vertex="1" parent="WIyWlLk6GJQsqaUBKTNV-1">
          <mxGeometry x="67.5" y="500" width="492.5" height="340" as="geometry" />
        </mxCell>
        <mxCell id="R8ctTaG4anzIAtwADdkF-19" style="edgeStyle=orthogonalEdgeStyle;rounded=0;orthogonalLoop=1;jettySize=auto;html=1;entryX=0.992;entryY=0.65;entryDx=0;entryDy=0;entryPerimeter=0;" edge="1" parent="WIyWlLk6GJQsqaUBKTNV-1" source="R8ctTaG4anzIAtwADdkF-4" target="R8ctTaG4anzIAtwADdkF-9">
          <mxGeometry relative="1" as="geometry">
            <Array as="points">
              <mxPoint x="405" y="310" />
              <mxPoint x="340" y="310" />
              <mxPoint x="340" y="249" />
            </Array>
          </mxGeometry>
        </mxCell>
        <mxCell id="R8ctTaG4anzIAtwADdkF-20" value="reponse" style="edgeLabel;html=1;align=center;verticalAlign=middle;resizable=0;points=[];" vertex="1" connectable="0" parent="R8ctTaG4anzIAtwADdkF-19">
          <mxGeometry x="-0.3248" relative="1" as="geometry">
            <mxPoint as="offset" />
          </mxGeometry>
        </mxCell>
        <mxCell id="R8ctTaG4anzIAtwADdkF-22" value="" style="edgeStyle=orthogonalEdgeStyle;rounded=0;orthogonalLoop=1;jettySize=auto;html=1;entryX=1;entryY=0.5;entryDx=0;entryDy=0;" edge="1" parent="WIyWlLk6GJQsqaUBKTNV-1" source="R8ctTaG4anzIAtwADdkF-4" target="R8ctTaG4anzIAtwADdkF-21">
          <mxGeometry relative="1" as="geometry">
            <Array as="points">
              <mxPoint x="405" y="475" />
              <mxPoint x="398" y="475" />
              <mxPoint x="398" y="580" />
            </Array>
          </mxGeometry>
        </mxCell>
        <mxCell id="R8ctTaG4anzIAtwADdkF-43" value="send" style="edgeLabel;html=1;align=center;verticalAlign=middle;resizable=0;points=[];" vertex="1" connectable="0" parent="R8ctTaG4anzIAtwADdkF-22">
          <mxGeometry x="-0.1186" y="-2" relative="1" as="geometry">
            <mxPoint as="offset" />
          </mxGeometry>
        </mxCell>
        <mxCell id="R8ctTaG4anzIAtwADdkF-40" style="edgeStyle=orthogonalEdgeStyle;rounded=0;orthogonalLoop=1;jettySize=auto;html=1;" edge="1" parent="WIyWlLk6GJQsqaUBKTNV-1" source="R8ctTaG4anzIAtwADdkF-4" target="R8ctTaG4anzIAtwADdkF-38">
          <mxGeometry relative="1" as="geometry" />
        </mxCell>
        <mxCell id="R8ctTaG4anzIAtwADdkF-42" value="send" style="edgeLabel;html=1;align=center;verticalAlign=middle;resizable=0;points=[];" vertex="1" connectable="0" parent="R8ctTaG4anzIAtwADdkF-40">
          <mxGeometry x="0.2364" y="-3" relative="1" as="geometry">
            <mxPoint as="offset" />
          </mxGeometry>
        </mxCell>
        <mxCell id="R8ctTaG4anzIAtwADdkF-4" value="RMB-borker" style="rounded=1;whiteSpace=wrap;html=1;fillColor=#d5e8d4;strokeColor=#82b366;" vertex="1" parent="WIyWlLk6GJQsqaUBKTNV-1">
          <mxGeometry x="350" y="410" width="110" height="40" as="geometry" />
        </mxCell>
        <mxCell id="R8ctTaG4anzIAtwADdkF-7" value="配置记录表" style="rounded=0;whiteSpace=wrap;html=1;" vertex="1" parent="WIyWlLk6GJQsqaUBKTNV-1">
          <mxGeometry x="315" y="60" width="90" height="70" as="geometry" />
        </mxCell>
        <mxCell id="R8ctTaG4anzIAtwADdkF-10" value="" style="edgeStyle=orthogonalEdgeStyle;rounded=0;orthogonalLoop=1;jettySize=auto;html=1;" edge="1" parent="WIyWlLk6GJQsqaUBKTNV-1" source="R8ctTaG4anzIAtwADdkF-8" target="R8ctTaG4anzIAtwADdkF-7">
          <mxGeometry relative="1" as="geometry">
            <Array as="points">
              <mxPoint x="120" y="95" />
            </Array>
          </mxGeometry>
        </mxCell>
        <mxCell id="R8ctTaG4anzIAtwADdkF-14" value="select" style="edgeLabel;html=1;align=center;verticalAlign=middle;resizable=0;points=[];" vertex="1" connectable="0" parent="R8ctTaG4anzIAtwADdkF-10">
          <mxGeometry x="-0.3217" relative="1" as="geometry">
            <mxPoint as="offset" />
          </mxGeometry>
        </mxCell>
        <mxCell id="R8ctTaG4anzIAtwADdkF-11" value="" style="edgeStyle=orthogonalEdgeStyle;rounded=0;orthogonalLoop=1;jettySize=auto;html=1;" edge="1" parent="WIyWlLk6GJQsqaUBKTNV-1" source="R8ctTaG4anzIAtwADdkF-8" target="R8ctTaG4anzIAtwADdkF-9">
          <mxGeometry relative="1" as="geometry" />
        </mxCell>
        <mxCell id="R8ctTaG4anzIAtwADdkF-15" value="call" style="edgeLabel;html=1;align=center;verticalAlign=middle;resizable=0;points=[];" vertex="1" connectable="0" parent="R8ctTaG4anzIAtwADdkF-11">
          <mxGeometry x="-0.2667" y="-4" relative="1" as="geometry">
            <mxPoint as="offset" />
          </mxGeometry>
        </mxCell>
        <mxCell id="R8ctTaG4anzIAtwADdkF-8" value="定时任务" style="ellipse;whiteSpace=wrap;html=1;aspect=fixed;" vertex="1" parent="WIyWlLk6GJQsqaUBKTNV-1">
          <mxGeometry x="80" y="130" width="80" height="80" as="geometry" />
        </mxCell>
        <mxCell id="R8ctTaG4anzIAtwADdkF-12" style="edgeStyle=orthogonalEdgeStyle;rounded=0;orthogonalLoop=1;jettySize=auto;html=1;entryX=0;entryY=0.5;entryDx=0;entryDy=0;" edge="1" parent="WIyWlLk6GJQsqaUBKTNV-1" source="R8ctTaG4anzIAtwADdkF-9" target="R8ctTaG4anzIAtwADdkF-4">
          <mxGeometry relative="1" as="geometry">
            <mxPoint x="343" y="440" as="targetPoint" />
            <Array as="points">
              <mxPoint x="270" y="360" />
              <mxPoint x="300" y="360" />
              <mxPoint x="300" y="420" />
              <mxPoint x="343" y="420" />
              <mxPoint x="343" y="430" />
            </Array>
          </mxGeometry>
        </mxCell>
        <mxCell id="R8ctTaG4anzIAtwADdkF-16" value="send" style="edgeLabel;html=1;align=center;verticalAlign=middle;resizable=0;points=[];" vertex="1" connectable="0" parent="R8ctTaG4anzIAtwADdkF-12">
          <mxGeometry x="-0.5294" y="-2" relative="1" as="geometry">
            <mxPoint as="offset" />
          </mxGeometry>
        </mxCell>
        <mxCell id="R8ctTaG4anzIAtwADdkF-48" style="edgeStyle=orthogonalEdgeStyle;rounded=0;orthogonalLoop=1;jettySize=auto;html=1;entryX=0.667;entryY=1;entryDx=0;entryDy=0;entryPerimeter=0;" edge="1" parent="WIyWlLk6GJQsqaUBKTNV-1" source="R8ctTaG4anzIAtwADdkF-9" target="R8ctTaG4anzIAtwADdkF-7">
          <mxGeometry relative="1" as="geometry" />
        </mxCell>
        <mxCell id="R8ctTaG4anzIAtwADdkF-49" value="update" style="edgeLabel;html=1;align=center;verticalAlign=middle;resizable=0;points=[];" vertex="1" connectable="0" parent="R8ctTaG4anzIAtwADdkF-48">
          <mxGeometry x="-0.2973" y="3" relative="1" as="geometry">
            <mxPoint as="offset" />
          </mxGeometry>
        </mxCell>
        <mxCell id="R8ctTaG4anzIAtwADdkF-9" value="RMB-producer" style="rounded=1;whiteSpace=wrap;html=1;" vertex="1" parent="WIyWlLk6GJQsqaUBKTNV-1">
          <mxGeometry x="210" y="210" width="120" height="60" as="geometry" />
        </mxCell>
        <mxCell id="R8ctTaG4anzIAtwADdkF-24" style="edgeStyle=orthogonalEdgeStyle;rounded=0;orthogonalLoop=1;jettySize=auto;html=1;entryX=0.5;entryY=0;entryDx=0;entryDy=0;" edge="1" parent="WIyWlLk6GJQsqaUBKTNV-1" source="R8ctTaG4anzIAtwADdkF-21" target="R8ctTaG4anzIAtwADdkF-23">
          <mxGeometry relative="1" as="geometry" />
        </mxCell>
        <mxCell id="R8ctTaG4anzIAtwADdkF-27" value="insert" style="edgeLabel;html=1;align=center;verticalAlign=middle;resizable=0;points=[];" vertex="1" connectable="0" parent="R8ctTaG4anzIAtwADdkF-24">
          <mxGeometry x="0.2222" y="3" relative="1" as="geometry">
            <mxPoint as="offset" />
          </mxGeometry>
        </mxCell>
        <mxCell id="R8ctTaG4anzIAtwADdkF-21" value="RMB-consumer" style="rounded=1;whiteSpace=wrap;html=1;" vertex="1" parent="WIyWlLk6GJQsqaUBKTNV-1">
          <mxGeometry x="120" y="550" width="120" height="60" as="geometry" />
        </mxCell>
        <mxCell id="R8ctTaG4anzIAtwADdkF-23" value="配置记录表" style="rounded=0;whiteSpace=wrap;html=1;" vertex="1" parent="WIyWlLk6GJQsqaUBKTNV-1">
          <mxGeometry x="135" y="700" width="90" height="70" as="geometry" />
        </mxCell>
        <mxCell id="R8ctTaG4anzIAtwADdkF-31" value="" style="edgeStyle=orthogonalEdgeStyle;rounded=0;orthogonalLoop=1;jettySize=auto;html=1;" edge="1" parent="WIyWlLk6GJQsqaUBKTNV-1" source="R8ctTaG4anzIAtwADdkF-28" target="R8ctTaG4anzIAtwADdkF-23">
          <mxGeometry relative="1" as="geometry" />
        </mxCell>
        <mxCell id="R8ctTaG4anzIAtwADdkF-32" value="select" style="edgeLabel;html=1;align=center;verticalAlign=middle;resizable=0;points=[];" vertex="1" connectable="0" parent="R8ctTaG4anzIAtwADdkF-31">
          <mxGeometry x="-0.4" relative="1" as="geometry">
            <mxPoint as="offset" />
          </mxGeometry>
        </mxCell>
        <mxCell id="R8ctTaG4anzIAtwADdkF-34" style="edgeStyle=orthogonalEdgeStyle;rounded=0;orthogonalLoop=1;jettySize=auto;html=1;entryX=0;entryY=0.5;entryDx=0;entryDy=0;" edge="1" parent="WIyWlLk6GJQsqaUBKTNV-1" source="R8ctTaG4anzIAtwADdkF-28" target="R8ctTaG4anzIAtwADdkF-33">
          <mxGeometry relative="1" as="geometry" />
        </mxCell>
        <mxCell id="R8ctTaG4anzIAtwADdkF-35" value="insert/update" style="edgeLabel;html=1;align=center;verticalAlign=middle;resizable=0;points=[];" vertex="1" connectable="0" parent="R8ctTaG4anzIAtwADdkF-34">
          <mxGeometry x="-0.1385" y="1" relative="1" as="geometry">
            <mxPoint as="offset" />
          </mxGeometry>
        </mxCell>
        <mxCell id="R8ctTaG4anzIAtwADdkF-28" value="定时任务" style="ellipse;whiteSpace=wrap;html=1;aspect=fixed;" vertex="1" parent="WIyWlLk6GJQsqaUBKTNV-1">
          <mxGeometry x="320" y="730" width="80" height="80" as="geometry" />
        </mxCell>
        <mxCell id="R8ctTaG4anzIAtwADdkF-37" style="edgeStyle=orthogonalEdgeStyle;rounded=0;orthogonalLoop=1;jettySize=auto;html=1;entryX=0.5;entryY=1;entryDx=0;entryDy=0;" edge="1" parent="WIyWlLk6GJQsqaUBKTNV-1" source="R8ctTaG4anzIAtwADdkF-33" target="R8ctTaG4anzIAtwADdkF-36">
          <mxGeometry relative="1" as="geometry" />
        </mxCell>
        <mxCell id="R8ctTaG4anzIAtwADdkF-50" value="call" style="edgeLabel;html=1;align=center;verticalAlign=middle;resizable=0;points=[];" vertex="1" connectable="0" parent="R8ctTaG4anzIAtwADdkF-37">
          <mxGeometry x="0.239" y="-1" relative="1" as="geometry">
            <mxPoint as="offset" />
          </mxGeometry>
        </mxCell>
        <mxCell id="R8ctTaG4anzIAtwADdkF-33" value="业务DB" style="rounded=1;whiteSpace=wrap;html=1;" vertex="1" parent="WIyWlLk6GJQsqaUBKTNV-1">
          <mxGeometry x="590" y="730" width="140" height="70" as="geometry" />
        </mxCell>
        <mxCell id="R8ctTaG4anzIAtwADdkF-39" style="edgeStyle=orthogonalEdgeStyle;rounded=0;orthogonalLoop=1;jettySize=auto;html=1;entryX=1;entryY=0.5;entryDx=0;entryDy=0;" edge="1" parent="WIyWlLk6GJQsqaUBKTNV-1" source="R8ctTaG4anzIAtwADdkF-36" target="R8ctTaG4anzIAtwADdkF-4">
          <mxGeometry relative="1" as="geometry" />
        </mxCell>
        <mxCell id="R8ctTaG4anzIAtwADdkF-41" value="send" style="edgeLabel;html=1;align=center;verticalAlign=middle;resizable=0;points=[];" vertex="1" connectable="0" parent="R8ctTaG4anzIAtwADdkF-39">
          <mxGeometry x="-0.34" y="1" relative="1" as="geometry">
            <mxPoint as="offset" />
          </mxGeometry>
        </mxCell>
        <mxCell id="R8ctTaG4anzIAtwADdkF-36" value="RMB-producer" style="rounded=1;whiteSpace=wrap;html=1;" vertex="1" parent="WIyWlLk6GJQsqaUBKTNV-1">
          <mxGeometry x="430" y="600" width="120" height="60" as="geometry" />
        </mxCell>
        <mxCell id="R8ctTaG4anzIAtwADdkF-46" style="edgeStyle=orthogonalEdgeStyle;rounded=0;orthogonalLoop=1;jettySize=auto;html=1;entryX=1;entryY=0.5;entryDx=0;entryDy=0;" edge="1" parent="WIyWlLk6GJQsqaUBKTNV-1" source="R8ctTaG4anzIAtwADdkF-38" target="R8ctTaG4anzIAtwADdkF-7">
          <mxGeometry relative="1" as="geometry">
            <Array as="points">
              <mxPoint x="550" y="95" />
            </Array>
          </mxGeometry>
        </mxCell>
        <mxCell id="R8ctTaG4anzIAtwADdkF-47" value="update" style="edgeLabel;html=1;align=center;verticalAlign=middle;resizable=0;points=[];" vertex="1" connectable="0" parent="R8ctTaG4anzIAtwADdkF-46">
          <mxGeometry x="-0.2897" y="1" relative="1" as="geometry">
            <mxPoint as="offset" />
          </mxGeometry>
        </mxCell>
        <mxCell id="R8ctTaG4anzIAtwADdkF-38" value="RMB-consumer" style="rounded=1;whiteSpace=wrap;html=1;" vertex="1" parent="WIyWlLk6GJQsqaUBKTNV-1">
          <mxGeometry x="490" y="240" width="120" height="60" as="geometry" />
        </mxCell>
        <mxCell id="R8ctTaG4anzIAtwADdkF-51" value="监控、告警" style="ellipse;whiteSpace=wrap;html=1;aspect=fixed;" vertex="1" parent="WIyWlLk6GJQsqaUBKTNV-1">
          <mxGeometry x="610" y="70" width="80" height="80" as="geometry" />
        </mxCell>
      </root>
    </mxGraphModel>
  </diagram>
</mxfile>
